<svg width="" height="" viewBox="0 0 16 9" fill="none" xmlns="http://www.w3.org/2000/svg">
<path d="M0.000549877 4.5012C0.00682793 4.66207 0.0730625 4.84806 0.183398 4.96531L3.78351 8.79047C4.02741 9.00972 4.49529 9.10013 4.7679 8.84665C5.03644 8.59695 5.02844 8.11291 4.76099 7.86227L2.22972 5.17623L14.6257 5.17622C14.9985 5.17622 15.3008 4.87394 15.3008 4.50118C15.3008 4.12841 14.9985 3.82613 14.6257 3.82613L2.22972 3.82613L4.76099 1.14009C4.9914 0.90937 5.03393 0.408066 4.7679 0.155702C4.50203 -0.0968313 4.01752 -0.0161571 3.78351 0.212044L0.183398 4.0372C0.0601936 4.1681 0.000236102 4.32175 0.000549877 4.50131L0.000549877 4.5012Z" fill="currentcolor"/>
</svg>
